<svg width="78" height="36" viewBox="0 0 78 36" fill="none" xmlns="http://www.w3.org/2000/svg">
<path d="M15.7961 0.00480001C15.8659 0.00321853 15.9357 0.00163704 16.0077 7.62939e-06C16.5145 0.0430552 16.9524 0.231524 17.3948 0.472537C17.4444 0.499086 17.4939 0.525635 17.545 0.552989C18.1046 0.856038 18.65 1.18324 19.1962 1.50976C19.4968 1.68866 19.7992 1.8646 20.1015 2.0406C20.1627 2.07625 20.2239 2.11189 20.2869 2.14861C20.4111 2.22092 20.5352 2.29322 20.6593 2.3655C20.9668 2.54458 21.2741 2.72392 21.5814 2.90323C21.6422 2.9387 21.7031 2.97416 21.7657 3.0107C22.071 3.18874 22.3762 3.36687 22.6813 3.54517C23.3116 3.91341 23.9429 4.27987 24.5757 4.64383C25.1937 4.99942 25.8078 5.36139 26.4206 5.72589C26.895 6.00767 27.3716 6.28555 27.8499 6.56078C27.9476 6.61706 27.9476 6.61706 28.0473 6.67448C28.3111 6.82632 28.5749 6.97812 28.8387 7.12981C29.0371 7.24401 29.2352 7.35859 29.4333 7.47325C29.4922 7.50706 29.5511 7.54088 29.6118 7.57572C30.5562 8.12357 31.2906 8.67371 31.6147 9.76723C31.6439 9.90728 31.6496 10.0341 31.65 10.1772C31.6503 10.2336 31.6506 10.29 31.651 10.3481C31.651 10.4407 31.651 10.4407 31.651 10.5352C31.6513 10.601 31.6516 10.6668 31.6519 10.7345C31.6527 10.9557 31.6531 11.1769 31.6534 11.3981C31.6539 11.5564 31.6544 11.7147 31.655 11.8729C31.6565 12.3486 31.6574 12.8242 31.6581 13.2999C31.6584 13.4343 31.6586 13.5687 31.6589 13.7032C31.6604 14.5386 31.6618 15.3741 31.6625 16.2096C31.6627 16.403 31.6629 16.5965 31.6631 16.79C31.6631 16.8381 31.6632 16.8862 31.6632 16.9357C31.664 17.7138 31.666 18.4919 31.6686 19.27C31.6712 20.0696 31.6726 20.8692 31.673 21.6688C31.6732 22.1175 31.6739 22.5661 31.6759 23.0147C31.6778 23.4371 31.6781 23.8595 31.6774 24.2819C31.6774 24.4365 31.6779 24.5912 31.679 24.7459C31.6889 26.2517 31.6889 26.2517 31.3349 26.8881C31.3057 26.9407 31.2765 26.9933 31.2464 27.0474C30.8836 27.6626 30.2962 28.023 29.6863 28.3604C29.5803 28.4202 29.4743 28.4801 29.3684 28.5401C29.2954 28.5814 29.2224 28.6227 29.1493 28.664C28.7598 28.8839 28.3758 29.1127 27.9917 29.3418C27.1229 29.8587 26.2472 30.3631 25.3706 30.8665C24.5562 31.3343 23.7451 31.8071 22.9379 32.2872C22.3974 32.6082 21.8539 32.9235 21.309 33.2369C20.8672 33.4909 20.4265 33.7467 19.9865 34.0039C19.3964 34.3488 18.8048 34.6911 18.2124 35.0322C18.1194 35.0858 18.1194 35.0858 18.0245 35.1404C17.9639 35.1753 17.9033 35.2101 17.8408 35.246C17.7123 35.3205 17.5842 35.3958 17.4565 35.4717C17.3596 35.5292 17.3596 35.5292 17.2609 35.5878C17.2031 35.6223 17.1453 35.6569 17.0858 35.6925C16.4674 36.0281 15.7068 36.0771 15.0314 35.8974C14.67 35.7813 14.3593 35.596 14.0363 35.3994C13.906 35.3217 13.7756 35.2441 13.6453 35.1665C13.5784 35.1265 13.5115 35.0864 13.4425 35.0451C13.1109 34.8479 12.7761 34.6561 12.4414 34.4639C11.744 34.0623 11.0486 33.6575 10.3538 33.2514C10.0478 33.0727 9.74172 32.8942 9.43562 32.7157C9.06893 32.5018 8.70227 32.2879 8.33577 32.0737C7.70544 31.7055 7.07416 31.339 6.44134 30.9751C5.82363 30.6197 5.2099 30.2579 4.59743 29.8936C4.11381 29.6063 3.62789 29.3233 3.14035 29.0428C3.07413 29.0047 3.00791 28.9665 2.93968 28.9272C2.5798 28.7199 2.5798 28.7199 2.21952 28.5132C1.2852 27.9781 0.39065 27.4612 0.0789858 26.3532C-0.036629 25.7912 0.00806396 25.1903 0.0105334 24.6198C0.0101173 24.4583 0.00958193 24.2968 0.00890471 24.1353C0.0075472 23.7437 0.00783303 23.3521 0.00872499 22.9605C0.00942012 22.642 0.00951082 22.3236 0.00917802 22.0051C0.00913103 21.9596 0.00908417 21.9141 0.00903575 21.8673C0.00893768 21.7749 0.00883702 21.6825 0.00873623 21.5901C0.00786349 20.7254 0.00886556 19.8607 0.0105165 18.996C0.011887 18.2554 0.0116475 17.5147 0.0102338 16.774C0.00858964 15.9122 0.00794758 15.0503 0.00888786 14.1884C0.00898556 14.0964 0.00908289 14.0044 0.00917802 13.9123C0.00922534 13.8671 0.00927155 13.8218 0.0093203 13.7751C0.00958425 13.4573 0.00913972 13.1395 0.00841611 12.8216C0.00755276 12.4339 0.00779609 12.0463 0.00942326 11.6586C0.0102251 11.461 0.0103841 11.2636 0.00952996 11.066C0.00525897 9.97781 0.0466542 9.17766 0.847673 8.36271C1.34309 7.91585 1.96015 7.61883 2.53914 7.29641C2.94697 7.06843 3.34868 6.83076 3.74994 6.59145C4.62246 6.07185 5.50194 5.56484 6.38258 5.05915C7.19697 4.59128 8.00808 4.11855 8.81531 3.63843C9.35575 3.31745 9.89927 3.00211 10.4442 2.68877C10.886 2.43472 11.3267 2.17892 11.7666 1.92175C11.9487 1.81555 12.1307 1.70939 12.3127 1.60324C12.4439 1.52668 12.5751 1.45004 12.7062 1.37332C14.0777 0.57146 14.0777 0.57146 14.6689 0.273173C14.707 0.25381 14.7451 0.234447 14.7844 0.214497C15.1257 0.0472192 15.4186 0.00987266 15.7961 0.00480001Z" fill="#FEFEFE"/>
<path d="M15.7961 0.00480001C15.8659 0.00321853 15.9357 0.00163704 16.0077 7.62939e-06C16.5145 0.0430552 16.9524 0.231524 17.3948 0.472537C17.4444 0.499086 17.4939 0.525635 17.545 0.552989C18.1046 0.856038 18.65 1.18324 19.1962 1.50976C19.4968 1.68866 19.7992 1.8646 20.1015 2.0406C20.1627 2.07625 20.2239 2.11189 20.2869 2.14861C20.4111 2.22092 20.5352 2.29322 20.6593 2.3655C20.9668 2.54458 21.2741 2.72392 21.5814 2.90323C21.6422 2.9387 21.7031 2.97416 21.7657 3.0107C22.071 3.18874 22.3762 3.36687 22.6813 3.54517C23.3116 3.91341 23.9429 4.27987 24.5757 4.64383C25.1937 4.99942 25.8078 5.36139 26.4206 5.72589C26.895 6.00767 27.3716 6.28555 27.8499 6.56078C27.9476 6.61706 27.9476 6.61706 28.0473 6.67448C28.3111 6.82632 28.5749 6.97812 28.8387 7.12981C29.0371 7.24401 29.2352 7.35859 29.4333 7.47325C29.4922 7.50706 29.5511 7.54088 29.6118 7.57572C30.5562 8.12357 31.2906 8.67371 31.6147 9.76723C31.6439 9.90728 31.6496 10.0341 31.65 10.1772C31.6503 10.2336 31.6506 10.29 31.651 10.3481C31.651 10.4407 31.651 10.4407 31.651 10.5352C31.6513 10.601 31.6516 10.6668 31.6519 10.7345C31.6527 10.9557 31.6531 11.1769 31.6534 11.3981C31.6539 11.5564 31.6544 11.7147 31.655 11.8729C31.6565 12.3486 31.6574 12.8242 31.6581 13.2999C31.6584 13.4343 31.6586 13.5687 31.6589 13.7032C31.6604 14.5386 31.6618 15.3741 31.6625 16.2096C31.6627 16.403 31.6629 16.5965 31.6631 16.79C31.6631 16.8381 31.6632 16.8862 31.6632 16.9357C31.664 17.7138 31.666 18.4919 31.6686 19.27C31.6712 20.0696 31.6726 20.8692 31.673 21.6688C31.6732 22.1175 31.6739 22.5661 31.6759 23.0147C31.6778 23.4371 31.6781 23.8595 31.6774 24.2819C31.6774 24.4365 31.6779 24.5912 31.679 24.7459C31.6889 26.2517 31.6889 26.2517 31.3349 26.8881C31.3057 26.9407 31.2765 26.9933 31.2464 27.0474C30.8836 27.6626 30.2962 28.023 29.6863 28.3604C29.5803 28.4202 29.4743 28.4801 29.3684 28.5401C29.2954 28.5814 29.2224 28.6227 29.1493 28.664C28.7598 28.8839 28.3758 29.1127 27.9917 29.3418C27.1229 29.8587 26.2472 30.3631 25.3706 30.8665C24.5562 31.3343 23.7451 31.8071 22.9379 32.2872C22.3974 32.6082 21.8539 32.9235 21.309 33.2369C20.8672 33.4909 20.4265 33.7467 19.9865 34.0039C19.3964 34.3488 18.8048 34.6911 18.2124 35.0322C18.1194 35.0858 18.1194 35.0858 18.0245 35.1404C17.9639 35.1753 17.9033 35.2101 17.8408 35.246C17.7123 35.3205 17.5842 35.3958 17.4565 35.4717C17.3596 35.5292 17.3596 35.5292 17.2609 35.5878C17.2031 35.6223 17.1453 35.6569 17.0858 35.6925C16.4674 36.0281 15.7068 36.0771 15.0314 35.8974C14.67 35.7813 14.3593 35.596 14.0363 35.3994C13.906 35.3217 13.7756 35.2441 13.6453 35.1665C13.5784 35.1265 13.5115 35.0864 13.4425 35.0451C13.1109 34.8479 12.7761 34.6561 12.4414 34.4639C11.744 34.0623 11.0486 33.6575 10.3538 33.2514C10.0478 33.0727 9.74172 32.8942 9.43562 32.7157C9.06893 32.5018 8.70227 32.2879 8.33577 32.0737C7.70544 31.7055 7.07416 31.339 6.44134 30.9751C5.82363 30.6197 5.2099 30.2579 4.59743 29.8936C4.11381 29.6063 3.62789 29.3233 3.14035 29.0428C3.07413 29.0047 3.00791 28.9665 2.93968 28.9272C2.5798 28.7199 2.5798 28.7199 2.21952 28.5132C1.2852 27.9781 0.39065 27.4612 0.0789858 26.3532C-0.036629 25.7912 0.00806396 25.1903 0.0105334 24.6198C0.0101173 24.4583 0.00958193 24.2968 0.00890471 24.1353C0.0075472 23.7437 0.00783303 23.3521 0.00872499 22.9605C0.00942012 22.642 0.00951082 22.3236 0.00917802 22.0051C0.00913103 21.9596 0.00908417 21.9141 0.00903575 21.8673C0.00893768 21.7749 0.00883702 21.6825 0.00873623 21.5901C0.00786349 20.7254 0.00886556 19.8607 0.0105165 18.996C0.011887 18.2554 0.0116475 17.5147 0.0102338 16.774C0.00858964 15.9122 0.00794758 15.0503 0.00888786 14.1884C0.00898556 14.0964 0.00908289 14.0044 0.00917802 13.9123C0.00922534 13.8671 0.00927155 13.8218 0.0093203 13.7751C0.00958425 13.4573 0.00913972 13.1395 0.00841611 12.8216C0.00755276 12.4339 0.00779609 12.0463 0.00942326 11.6586C0.0102251 11.461 0.0103841 11.2636 0.00952996 11.066C0.00525897 9.97781 0.0466542 9.17766 0.847673 8.36271C1.34309 7.91585 1.96015 7.61883 2.53914 7.29641C2.94697 7.06843 3.34868 6.83076 3.74994 6.59145C4.62246 6.07185 5.50194 5.56484 6.38258 5.05915C7.19697 4.59128 8.00808 4.11855 8.81531 3.63843C9.35575 3.31745 9.89927 3.00211 10.4442 2.68877C10.886 2.43472 11.3267 2.17892 11.7666 1.92175C11.9487 1.81555 12.1307 1.70939 12.3127 1.60324C12.4439 1.52668 12.5751 1.45004 12.7062 1.37332C14.0777 0.57146 14.0777 0.57146 14.6689 0.273173C14.707 0.25381 14.7451 0.234447 14.7844 0.214497C15.1257 0.0472192 15.4186 0.00987266 15.7961 0.00480001ZM15.4448 2.89029C15.3808 2.92738 15.3168 2.96448 15.2509 3.00269C15.1469 3.06353 15.1469 3.06353 15.0408 3.1256C14.9685 3.16767 14.8961 3.20972 14.8237 3.25174C14.6377 3.35986 14.4519 3.46829 14.2661 3.57682C14.1033 3.67186 13.9404 3.76665 13.7775 3.86147C13.4745 4.03798 13.1716 4.21482 12.8688 4.39178C12.5015 4.60641 12.1339 4.82069 11.7663 5.03503C11.4611 5.21307 11.1559 5.39118 10.8508 5.56948C10.2205 5.93771 9.5892 6.30418 8.95638 6.66813C8.40821 6.98353 7.86286 7.30331 7.31931 7.62661C6.7104 7.98877 6.09867 8.3456 5.48451 8.69878C4.53935 9.23672 4.53935 9.23672 3.60642 9.79523C3.42406 9.89628 3.42406 9.89628 3.23298 9.95828C2.99256 10.0505 2.85984 10.1318 2.68795 10.3257C2.54133 10.786 2.59527 11.3058 2.60438 11.7822C2.60459 11.9333 2.60447 12.0845 2.60405 12.2356C2.60389 12.5609 2.60597 12.886 2.61012 13.2112C2.61611 13.6813 2.61802 14.1514 2.61894 14.6216C2.62055 15.3845 2.62545 16.1473 2.63242 16.9102C2.63918 17.651 2.64438 18.3919 2.64751 19.1328C2.64771 19.1785 2.6479 19.2242 2.6481 19.2713C2.64906 19.5005 2.64999 19.7298 2.6509 19.959C2.65853 21.8598 2.67155 23.7605 2.68795 25.6613C2.73237 25.6869 2.77679 25.7125 2.82255 25.7389C2.99121 25.8361 3.15986 25.9334 3.32851 26.0306C3.43585 26.0925 3.54319 26.1544 3.65054 26.2163C4.29266 26.5866 4.93304 26.9599 5.57302 27.3339C5.87898 27.5126 6.18509 27.6911 6.49118 27.8696C6.85787 28.0835 7.22454 28.2974 7.59103 28.5116C8.22137 28.8798 8.85265 29.2463 9.48546 29.6102C10.1035 29.9658 10.7175 30.3278 11.3303 30.6923C11.8702 31.0129 12.4131 31.3279 12.9573 31.6409C13.5329 31.9719 14.1066 32.306 14.6799 32.6409C14.7348 32.6726 14.7896 32.7042 14.8462 32.7368C14.9693 32.8097 15.0907 32.8854 15.211 32.963C15.2752 33.0035 15.3394 33.0439 15.4055 33.0857C15.4634 33.1233 15.5213 33.161 15.5809 33.1998C15.7532 33.2858 15.7532 33.2858 15.9406 33.2284C16.1092 33.151 16.2686 33.07 16.4282 32.9754C16.4858 32.9415 16.5435 32.9076 16.6029 32.8726C16.6643 32.836 16.7258 32.7994 16.7891 32.7617C16.9218 32.6834 17.0545 32.6051 17.1873 32.5269C17.255 32.4868 17.3226 32.4468 17.3924 32.4055C17.7042 32.2213 18.0173 32.0391 18.3303 31.8569C18.453 31.7853 18.5757 31.7138 18.6983 31.6422C18.9437 31.4991 19.1891 31.3559 19.4345 31.2128C19.4952 31.1774 19.5559 31.142 19.6184 31.1055C19.7412 31.0338 19.864 30.9622 19.9868 30.8906C20.2921 30.7126 20.5973 30.5345 20.9024 30.3562C21.5327 29.9879 22.164 29.6215 22.7968 29.2575C23.345 28.9421 23.8903 28.6223 24.4339 28.299C25.0427 27.9369 25.6543 27.5802 26.2684 27.227C26.7312 26.9608 27.1931 26.6932 27.6543 26.4242C27.7133 26.3899 27.7722 26.3556 27.8329 26.3202C27.8891 26.2874 27.9453 26.2546 28.0032 26.2208C28.0515 26.1926 28.0999 26.1644 28.1496 26.1354C28.2089 26.1004 28.2681 26.0654 28.3291 26.0294C28.3782 26.0066 28.4273 25.9838 28.4779 25.9603C28.7985 25.8054 28.7985 25.8054 29.0009 25.5277C29.0244 25.363 29.0285 25.2071 29.0262 25.0406C29.0278 24.9783 29.0293 24.916 29.0309 24.8517C29.0354 24.6429 29.0355 24.4343 29.0355 24.2254C29.0378 24.0756 29.0403 23.9259 29.043 23.7761C29.0494 23.3693 29.0519 22.9625 29.0532 22.5556C29.0541 22.3012 29.056 22.0468 29.0581 21.7925C29.0638 21.0873 29.0685 20.3822 29.0692 19.677C29.0692 19.6319 29.0693 19.5868 29.0693 19.5404C29.0694 19.4489 29.0695 19.3575 29.0696 19.2661C29.0696 19.2207 29.0696 19.1754 29.0697 19.1286C29.0697 19.0832 29.0698 19.0378 29.0698 18.991C29.0706 18.2556 29.0784 17.5205 29.0893 16.7853C29.1005 16.0293 29.106 15.2734 29.106 14.5173C29.1061 14.0932 29.1085 13.6694 29.1169 13.2453C29.1249 12.846 29.1251 12.4472 29.1203 12.0478C29.1197 11.9018 29.1216 11.7557 29.1263 11.6097C29.1486 10.9459 29.1486 10.9459 28.9425 10.3257C28.5819 9.96798 28.1234 9.76224 27.6648 9.55783C27.3417 9.40672 27.0396 9.22114 26.7342 9.03748C26.6116 8.96576 26.4889 8.89417 26.3662 8.82278C25.63 8.39339 25.63 8.39339 25.446 8.28605C25.3233 8.21443 25.2005 8.14281 25.0777 8.0712C24.7724 7.89317 24.4672 7.71505 24.1621 7.53675C23.5318 7.16851 22.9005 6.80205 22.2677 6.43809C21.6497 6.0825 21.0357 5.72053 20.4228 5.35603C19.8829 5.03537 19.34 4.72031 18.7956 4.40731C18.3378 4.14411 17.8813 3.87893 17.4255 3.61251C17.2484 3.50919 17.0714 3.40591 16.8943 3.30265C16.793 3.24353 16.6916 3.18437 16.5904 3.12515C16.4676 3.05347 16.3447 2.98212 16.2216 2.9109C16.1566 2.8731 16.0916 2.83531 16.0247 2.79636C15.7724 2.66493 15.6796 2.75354 15.4448 2.89029Z" fill="black"/>
<path d="M15.6652 6.37657C16.2791 6.33576 16.7111 6.59355 17.2263 6.89055C17.2665 6.91352 17.3067 6.93649 17.3482 6.96016C17.6064 7.10838 17.862 7.2607 18.1174 7.4137C18.3488 7.55139 18.5815 7.68672 18.8141 7.82212C18.9413 7.89616 19.0684 7.97037 19.1954 8.04475C19.4788 8.21072 19.7626 8.37548 20.05 8.53458C20.6862 8.88964 21.1848 9.20757 21.4194 9.92968C21.4799 10.1603 21.4856 10.3802 21.4847 10.6176C21.4852 10.6681 21.4857 10.7187 21.4863 10.7708C21.4877 10.9361 21.4878 11.1014 21.4877 11.2667C21.4881 11.3827 21.4886 11.4988 21.4891 11.6148C21.4899 11.8573 21.49 12.0997 21.4897 12.3422C21.4893 12.6517 21.4912 12.9611 21.4937 13.2705C21.4952 13.5099 21.4954 13.7493 21.4952 13.9887C21.4953 14.1028 21.4959 14.2168 21.497 14.3308C21.5067 15.4693 21.5067 15.4693 21.1522 15.9692C21.1119 16.0282 21.0716 16.0872 21.03 16.148C20.8932 16.2902 20.7623 16.3822 20.5925 16.483C20.5236 16.524 20.4547 16.5651 20.3838 16.6073C20.2924 16.6606 20.2009 16.7137 20.1094 16.7667C20.0463 16.8034 19.9832 16.8401 19.9182 16.8779C18.5946 17.6468 18.5946 17.6468 18.3918 17.7482C18.3918 17.7887 18.3918 17.8291 18.3918 17.8709C18.4359 17.8962 18.4801 17.9215 18.5256 17.9475C18.914 18.1704 19.302 18.394 19.6893 18.6188C19.8766 18.7275 20.0644 18.8353 20.2529 18.942C20.8046 19.2634 21.2589 19.6357 21.4589 20.2632C21.4836 20.4384 21.4841 20.6107 21.4827 20.7875C21.4832 20.8634 21.4832 20.8634 21.4837 20.9409C21.4845 21.1072 21.484 21.2735 21.4834 21.4397C21.4835 21.5561 21.4837 21.6724 21.4839 21.7888C21.4842 22.0323 21.4838 22.2757 21.4829 22.5192C21.4819 22.8302 21.4825 23.1411 21.4836 23.4521C21.4842 23.6923 21.484 23.9324 21.4836 24.1726C21.4834 24.2872 21.4836 24.4018 21.484 24.5164C21.4845 24.6772 21.4838 24.8378 21.4827 24.9985C21.4831 25.0452 21.4835 25.0919 21.4839 25.14C21.4774 25.6938 21.3085 26.1145 20.9273 26.5146C20.684 26.7326 20.4143 26.8857 20.1286 27.0416C19.998 27.1152 19.8675 27.189 19.737 27.2627C19.6683 27.3012 19.5996 27.3397 19.5287 27.3793C19.1842 27.5728 18.8441 27.7739 18.5036 27.9742C18.3887 28.0418 18.2738 28.1091 18.1589 28.1764C17.6971 28.4469 17.2375 28.7204 16.7816 29.0004C16.4684 29.1788 16.2435 29.2361 15.8806 29.2346C15.8079 29.2349 15.7353 29.2352 15.6604 29.2355C15.1926 29.1997 14.834 28.9693 14.4352 28.74C14.373 28.7045 14.3107 28.669 14.2466 28.6324C13.6608 28.297 13.0792 27.9548 12.4996 27.6087C12.3025 27.4919 12.1045 27.3769 11.9063 27.262C11.7678 27.1809 11.6293 27.0997 11.4908 27.0186C11.4259 26.9814 11.3611 26.9442 11.2943 26.9058C10.7812 26.6031 10.4196 26.3055 10.2333 25.7227C10.2077 25.5382 10.2068 25.3563 10.2075 25.1703C10.207 25.1167 10.2065 25.063 10.2059 25.0078C10.2045 24.8315 10.2044 24.6553 10.2045 24.4791C10.2041 24.3559 10.2036 24.2326 10.2031 24.1094C10.2023 23.8515 10.2022 23.5936 10.2025 23.3357C10.2029 23.0061 10.201 22.6766 10.1985 22.3471C10.1969 22.0927 10.1968 21.8383 10.197 21.5839C10.1969 21.4625 10.1963 21.341 10.1952 21.2196C10.1851 19.9656 10.1851 19.9656 10.6499 19.4717C10.987 19.1405 11.4112 18.9237 11.8205 18.6951C11.9584 18.6172 12.0962 18.5391 12.2341 18.461C12.3 18.4239 12.3659 18.3868 12.4339 18.3486C12.6661 18.2158 12.8941 18.0767 13.1212 17.9353C13.239 17.8709 13.239 17.8709 13.3617 17.8709C13.3617 17.8304 13.3617 17.7899 13.3617 17.7482C13.3144 17.7357 13.267 17.7232 13.2182 17.7103C12.9053 17.5921 12.6315 17.4222 12.3457 17.2498C12.2858 17.2138 12.2258 17.1778 12.164 17.1407C12.0447 17.0691 11.9256 16.9973 11.8065 16.9254C11.6696 16.8433 11.532 16.7629 11.3935 16.6835C10.8501 16.3662 10.4302 16.0355 10.2333 15.4172C10.2075 15.2331 10.2062 15.0514 10.2065 14.8657C10.2059 14.8122 10.2053 14.7587 10.2046 14.7035C10.2029 14.5276 10.2025 14.3517 10.2023 14.1757C10.2018 14.0526 10.2011 13.9296 10.2005 13.8065C10.1994 13.5488 10.199 13.2912 10.1992 13.0335C10.1992 12.7045 10.1967 12.3756 10.1935 12.0466C10.1914 11.7925 10.1911 11.5383 10.1912 11.2842C10.191 11.163 10.1901 11.0417 10.1887 10.9205C10.1755 9.6795 10.1755 9.6795 10.6013 9.22157C10.9597 8.88761 11.3734 8.65398 11.8013 8.42028C11.9264 8.35081 12.0514 8.28123 12.1763 8.21157C12.2403 8.176 12.3042 8.14043 12.3701 8.10377C12.6875 7.92551 13.0016 7.74167 13.3157 7.55765C13.3766 7.52213 13.4374 7.4866 13.5001 7.45C13.7931 7.27885 14.0856 7.10695 14.3775 6.93392C14.4823 6.87218 14.5872 6.81044 14.6921 6.7487C14.7394 6.72034 14.7868 6.69198 14.8356 6.66276C15.1179 6.49712 15.342 6.42458 15.6652 6.37657Z" fill="black"/>
<path d="M36.365 8.79215C37.4678 8.78798 38.5705 8.78459 39.6733 8.78261C40.1854 8.78167 40.6976 8.78038 41.2097 8.77826C41.6565 8.77642 42.1033 8.77524 42.5501 8.77483C42.7863 8.77459 43.0225 8.77404 43.2587 8.77269C44.9307 8.76349 46.5769 8.82774 47.8782 10.0228C49.0778 11.289 49.1152 13.0152 49.0728 14.6562C49.0533 15.0664 48.9879 15.4505 48.8788 15.8465C48.86 15.9211 48.86 15.9211 48.8407 15.9973C48.6417 16.6835 48.2833 17.3101 47.7747 17.8095C47.8548 17.9847 47.9211 18.0798 48.0584 18.2236C49.1595 19.4735 49.1366 21.2811 49.0629 22.8396C49.032 23.1757 48.9685 23.4954 48.8788 23.8211C48.86 23.8957 48.86 23.8957 48.8407 23.9718C48.5404 25.0071 47.8978 25.8455 46.9672 26.3879C45.7674 27.0274 44.4102 26.9846 43.0882 26.9744C42.8509 26.9728 42.6137 26.9727 42.3764 26.9724C41.9293 26.9717 41.4823 26.9697 41.0352 26.9672C40.5253 26.9644 40.0154 26.9631 39.5055 26.9619C38.4587 26.9593 37.4118 26.9548 36.365 26.9495C36.365 26.1398 36.365 25.3301 36.365 24.4958C36.6132 24.4949 36.8614 24.494 37.1172 24.4931C37.9393 24.49 38.7615 24.4859 39.5837 24.4814C40.0819 24.4786 40.5802 24.4762 41.0784 24.4746C41.5131 24.4732 41.9477 24.4711 42.3823 24.4683C42.6121 24.4668 42.8419 24.4657 43.0717 24.4653C43.2888 24.4649 43.5057 24.4637 43.7228 24.4618C43.8389 24.461 43.9551 24.4611 44.0713 24.4613C44.8919 24.4524 45.6542 24.3363 46.2905 23.7868C46.8798 23.1754 46.8775 22.2948 46.8675 21.502C46.8472 20.7998 46.6177 20.2432 46.1069 19.7533C45.6917 19.4203 45.1141 19.2761 44.5892 19.272C44.53 19.2714 44.4707 19.2708 44.4096 19.2702C44.3453 19.2698 44.2811 19.2695 44.2148 19.2691C44.1466 19.2685 44.0783 19.2679 44.008 19.2673C43.7826 19.2653 43.5573 19.2638 43.3319 19.2623C43.1756 19.261 43.0192 19.2598 42.8629 19.2584C42.4935 19.2554 42.1242 19.2526 41.7549 19.25C41.3343 19.2469 40.9138 19.2436 40.4932 19.2402C39.6283 19.2332 38.7634 19.2267 37.8985 19.2204C37.8985 18.3297 37.8985 17.439 37.8985 16.5213C38.211 16.52 38.211 16.52 38.5298 16.5186C39.2195 16.5155 39.9092 16.5114 40.5989 16.5068C41.0169 16.5041 41.4349 16.5017 41.8529 16.5C42.2566 16.4985 42.6603 16.496 43.064 16.4929C43.2177 16.4919 43.3714 16.4912 43.5252 16.4908C43.7411 16.4902 43.9571 16.4885 44.173 16.4865C44.2675 16.4866 44.2675 16.4866 44.3638 16.4867C45.0028 16.4785 45.6949 16.3489 46.1877 15.9158C46.8506 15.2309 46.8839 14.3864 46.8713 13.4839C46.8493 12.8418 46.6448 12.3108 46.1798 11.8593C45.5187 11.32 44.6641 11.2797 43.8442 11.2807C43.7619 11.2801 43.6796 11.2795 43.5973 11.2788C43.3768 11.2771 43.1563 11.2765 42.9359 11.2761C42.7043 11.2756 42.4728 11.274 42.2413 11.2725C41.8042 11.2698 41.3671 11.268 40.9301 11.2666C40.4319 11.2649 39.9337 11.2623 39.4356 11.2595C38.412 11.2538 37.3885 11.2495 36.365 11.2458C36.365 10.4361 36.365 9.6264 36.365 8.79215Z" fill="#030303"/>
<path d="M73.0864 15.1488C73.1479 15.1489 73.1479 15.1489 73.2106 15.1489C74.3692 15.154 75.3657 15.4237 76.2247 16.2494C77.0387 17.1437 77.243 18.2929 77.2309 19.4619C77.2308 19.5728 77.2308 19.5728 77.2308 19.6858C77.2276 20.3169 77.2276 20.3169 77.158 20.5086C77.0184 20.5784 76.9427 20.5775 76.7877 20.5773C76.71 20.5774 76.71 20.5774 76.6308 20.5776C76.5739 20.5773 76.517 20.5771 76.4583 20.5769C76.3686 20.5769 76.3686 20.5769 76.277 20.5769C76.0785 20.5769 75.88 20.5764 75.6815 20.5759C75.5442 20.5758 75.4068 20.5757 75.2694 20.5757C74.9074 20.5754 74.5454 20.5748 74.1833 20.5741C73.8141 20.5735 73.4449 20.5732 73.0757 20.5729C72.3508 20.5723 71.626 20.5712 70.9011 20.5699C70.9388 20.7265 70.9769 20.8829 71.0152 21.0393C71.0257 21.0833 71.0363 21.1272 71.0471 21.1725C71.1949 21.7732 71.4121 22.2468 71.9439 22.5942C72.5644 22.9617 73.4558 22.9524 74.1408 22.7811C74.7325 22.5474 75.0499 22.21 75.3791 21.6741C75.5587 21.7114 75.6915 21.7663 75.8459 21.8648C75.8872 21.8909 75.9284 21.917 75.971 21.9439C76.0135 21.9713 76.0561 21.9986 76.0999 22.0268C76.1415 22.0532 76.1831 22.0796 76.2259 22.1068C76.3098 22.1601 76.3937 22.2135 76.4774 22.267C76.683 22.3979 76.8898 22.5267 77.0967 22.6556C77.0231 23.2313 76.4887 23.7697 76.0539 24.1278C75.6075 24.4452 75.1774 24.6812 74.643 24.8026C74.5744 24.8237 74.5059 24.8449 74.4352 24.8668C74.051 24.9624 73.6564 24.9488 73.2628 24.9482C73.2218 24.9482 73.1808 24.9482 73.1386 24.9482C71.8375 24.9441 70.7065 24.5837 69.7296 23.6958C68.678 22.6139 68.4649 21.2348 68.4797 19.7936C68.5056 18.6451 68.7886 17.6367 69.4902 16.7053C69.5201 16.6646 69.55 16.6239 69.5808 16.5819C70.4335 15.513 71.7782 15.1469 73.0864 15.1488Z" fill="#020202"/>
<path d="M57.8774 15.2875C57.9784 15.2875 58.0793 15.2879 58.1802 15.2885C58.2597 15.2886 58.2597 15.2886 58.3408 15.2888C58.5108 15.2891 58.6809 15.2899 58.8509 15.2907C58.9659 15.291 59.0808 15.2913 59.1958 15.2915C59.4783 15.2922 59.7608 15.2932 60.0432 15.2945C59.898 15.7403 59.7381 16.1797 59.574 16.6189C59.5465 16.6928 59.519 16.7666 59.4906 16.8428C59.4167 17.041 59.3427 17.2393 59.2687 17.4374C59.2225 17.5611 59.1763 17.6848 59.1302 17.8084C58.7576 18.8066 58.3834 19.8041 58.0009 20.7986C57.7715 21.395 57.5454 21.9927 57.3202 22.5907C55.3769 27.751 55.3769 27.751 54.0047 28.4017C52.9677 28.862 51.7449 28.9892 50.6578 28.6058C50.5341 28.5465 50.4112 28.4856 50.2898 28.4218C50.3845 27.7793 50.4816 27.1463 50.6578 26.5202C50.8635 26.4501 50.9676 26.4692 51.1677 26.547C51.8146 26.7559 52.4885 26.6814 53.1154 26.4512C53.5298 26.1867 53.8435 25.7713 53.9703 25.2933C54.0017 24.9104 53.9035 24.6352 53.7628 24.2874C53.7406 24.2309 53.7184 24.1743 53.6956 24.116C53.6217 23.928 53.5468 23.7404 53.4719 23.5527C53.4192 23.4191 53.3666 23.2855 53.3141 23.1518C53.2024 22.8675 53.0904 22.5833 52.9783 22.2992C52.6903 21.5684 52.4086 20.8352 52.1262 20.1022C52.0697 19.9557 52.0132 19.8093 51.9567 19.6628C51.8172 19.3009 51.6777 18.939 51.5383 18.577C51.4549 18.3607 51.3715 18.1445 51.2881 17.9282C51.1561 17.5859 51.0243 17.2435 50.8926 16.9011C50.8437 16.774 50.7948 16.6469 50.7457 16.5198C50.6787 16.346 50.6119 16.1722 50.5452 15.9983C50.5154 15.9213 50.5154 15.9213 50.485 15.8427C50.3511 15.4925 50.3511 15.4925 50.3511 15.3558C51.1608 15.3558 51.9705 15.3558 52.8048 15.3558C53.0054 15.8374 53.1957 16.3128 53.3662 16.8043C53.4009 16.9035 53.4009 16.9035 53.4363 17.0046C53.4856 17.1454 53.5347 17.2861 53.5838 17.427C53.6607 17.6473 53.7379 17.8674 53.8153 18.0875C54.0363 18.7163 54.2569 19.3452 54.4745 19.9752C54.5523 20.1997 54.6308 20.4239 54.7096 20.6481C54.7457 20.7515 54.7814 20.8551 54.8168 20.9588C54.8653 21.1009 54.915 21.2424 54.965 21.3839C54.9788 21.4254 54.9926 21.4669 55.0068 21.5097C55.0496 21.6355 55.0496 21.6355 55.1358 21.7968C55.2607 21.8407 55.2607 21.8407 55.3812 21.8581C55.3966 21.7815 55.412 21.7049 55.4279 21.6259C55.5058 21.2763 55.6204 20.9425 55.7385 20.6047C55.7617 20.5375 55.7849 20.4703 55.8089 20.401C55.8845 20.1825 55.9606 19.9641 56.0368 19.7457C56.0892 19.5948 56.1416 19.4439 56.194 19.293C56.5253 18.3398 56.8599 17.3877 57.1985 16.437C57.2182 16.3816 57.2378 16.3261 57.2581 16.269C57.313 16.1149 57.368 15.9608 57.4232 15.8068C57.4393 15.7615 57.4554 15.7161 57.472 15.6694C57.6066 15.2959 57.6066 15.2959 57.8774 15.2875Z" fill="#020202"/>
<path d="M64.5215 13.0861C64.5215 13.8149 64.5215 14.5436 64.5215 15.2945C65.4121 15.2945 66.3028 15.2945 67.2205 15.2945C67.2205 15.922 67.2205 16.5495 67.2205 17.1961C66.3298 17.1961 65.4391 17.1961 64.5215 17.1961C64.527 18.0236 64.527 18.0236 64.5343 18.8511C64.5376 19.1889 64.5407 19.5266 64.5427 19.8644C64.5443 20.1368 64.5468 20.4093 64.5499 20.6817C64.5509 20.7854 64.5516 20.8891 64.552 20.9928C64.5526 21.1386 64.5543 21.2844 64.5563 21.4301C64.5562 21.4725 64.5561 21.5149 64.556 21.5586C64.5636 21.959 64.6614 22.2832 64.9163 22.5904C65.2524 22.8609 65.7037 22.8155 66.1164 22.7782C66.2708 22.7266 66.4041 22.6662 66.5458 22.5865C66.6957 22.5209 66.813 22.5291 66.9752 22.5329C67.0697 22.7816 67.1625 23.031 67.255 23.2805C67.2953 23.3863 67.2953 23.3863 67.3364 23.4943C67.3615 23.5625 67.3866 23.6307 67.4125 23.701C67.4359 23.7637 67.4594 23.8263 67.4835 23.8908C67.5308 24.0806 67.5253 24.1882 67.4659 24.3731C66.8941 24.9086 65.9433 24.9475 65.2077 24.9521C65.1434 24.9527 65.079 24.9533 65.0127 24.9539C64.2745 24.9457 63.5786 24.7325 63.0174 24.2366C62.1408 23.3208 62.0998 22.1323 62.1111 20.9341C62.1115 20.8255 62.1117 20.7169 62.1119 20.6083C62.1126 20.3259 62.1144 20.0435 62.1165 19.7612C62.1184 19.4717 62.1192 19.1821 62.1201 18.8926C62.1221 18.3271 62.1253 17.7616 62.1291 17.1961C61.6635 17.1961 61.1979 17.1961 60.7182 17.1961C60.7182 16.5685 60.7182 15.941 60.7182 15.2945C61.1838 15.2945 61.6494 15.2945 62.1291 15.2945C62.1291 14.6872 62.1291 14.0799 62.1291 13.4542C62.5853 13.3737 62.5853 13.3737 62.7383 13.3468C62.9798 13.3043 63.2213 13.2613 63.4626 13.217C63.509 13.2085 63.5554 13.2001 63.6032 13.1914C63.6921 13.1752 63.781 13.1588 63.8698 13.1422C64.0945 13.1016 64.2907 13.0861 64.5215 13.0861Z" fill="#020202"/>
<path d="M15.869 19.2945C16.0612 19.3432 16.1974 19.4052 16.3669 19.5067C16.4255 19.5414 16.4841 19.5761 16.5444 19.6118C16.6049 19.6484 16.6654 19.6849 16.7277 19.7226C16.8451 19.7925 16.9626 19.8624 17.08 19.9323C17.1459 19.9741 17.2118 20.016 17.2796 20.0591C17.4816 20.1809 17.6895 20.267 17.9083 20.3547C18.3206 20.5336 18.7101 20.712 19.0051 21.0606C19.2244 21.6346 19.1515 22.2811 19.1062 22.8826C19.091 23.1062 19.0844 23.33 19.077 23.5539C19.0613 23.9912 19.0363 24.4274 19.0051 24.8639C18.9626 24.8876 18.9201 24.9113 18.8764 24.9357C17.7883 25.5408 17.7883 25.5408 16.7124 26.1674C16.6565 26.2005 16.6006 26.2337 16.543 26.2678C16.3384 26.3893 16.136 26.5108 15.938 26.6428C15.6894 26.6227 15.5103 26.5252 15.2977 26.4001C15.2333 26.3625 15.1688 26.3249 15.1024 26.2862C15.034 26.2457 14.9656 26.2053 14.8951 26.1636C14.8242 26.122 14.7532 26.0805 14.6821 26.0391C14.5375 25.9546 14.3929 25.87 14.2484 25.7852C13.9337 25.601 13.617 25.4202 13.3002 25.2396C13.2461 25.2086 13.1919 25.1776 13.1361 25.1457C12.8833 25.0001 12.8833 25.0001 12.6255 24.8639C12.6255 23.6088 12.6255 22.3537 12.6255 21.0606C13.0911 20.7975 13.5566 20.5343 14.0363 20.2632C14.3077 20.1067 14.5788 19.95 14.8491 19.7916C14.9114 19.7553 14.9738 19.719 15.038 19.6815C15.7188 19.2836 15.7188 19.2836 15.869 19.2945Z" fill="#FDFDFD"/>
<path d="M15.9467 9.06197C16.0046 9.09439 16.0625 9.12681 16.1221 9.16021C16.1922 9.19849 16.2623 9.23676 16.3344 9.27619C16.4147 9.3241 16.4947 9.37236 16.5745 9.42092C16.666 9.47568 16.7576 9.53039 16.8491 9.58506C16.899 9.61492 16.9488 9.64478 17.0002 9.67554C17.3144 9.86262 17.6309 10.046 17.9471 10.2299C18.072 10.3026 18.1969 10.3754 18.3218 10.4482C18.3753 10.4793 18.4287 10.5104 18.4838 10.5424C18.5344 10.5721 18.585 10.6018 18.6372 10.6324C18.69 10.6574 18.7428 10.6824 18.7972 10.7081C18.9439 10.8165 18.9439 10.8165 18.9861 10.975C18.9879 11.0385 18.9896 11.102 18.9914 11.1674C18.9939 11.2395 18.9965 11.3116 18.9991 11.3859C19.0005 11.5029 19.0005 11.5029 19.0019 11.6223C19.0033 11.7026 19.0048 11.7828 19.0063 11.8655C19.009 12.0357 19.0103 12.2057 19.0108 12.3759C19.0116 12.5499 19.015 12.7236 19.0209 12.8976C19.0667 14.2816 19.0667 14.2816 18.8751 14.6177C18.6735 14.8272 18.4161 14.9003 18.1464 14.9878C18.0096 15.0635 17.8745 15.1423 17.7412 15.224C17.6067 15.3013 17.4721 15.3784 17.3375 15.4555C17.2024 15.5329 17.0673 15.6104 16.9323 15.6879C16.8681 15.7245 16.8038 15.7612 16.7376 15.7989C16.6158 15.8702 16.4954 15.9439 16.3767 16.0202C16.3233 16.0545 16.2699 16.0887 16.2149 16.124C16.1686 16.1548 16.1223 16.1856 16.0746 16.2173C15.8965 16.2938 15.8144 16.2738 15.6314 16.2146C15.4782 16.1424 15.4782 16.1424 15.3156 16.0509C15.2537 16.0163 15.1919 15.9816 15.1282 15.9459C15.064 15.9093 14.9998 15.8727 14.9336 15.835C14.8737 15.8016 14.8137 15.7681 14.752 15.7336C14.6175 15.6577 14.4846 15.5792 14.3527 15.4988C14.153 15.3805 13.9479 15.2909 13.734 15.2008C12.7886 14.7687 12.7886 14.7687 12.6137 14.3013C12.5184 13.7799 12.5508 13.2572 12.5901 12.7319C12.6047 12.5157 12.611 12.2993 12.6181 12.0828C12.6331 11.6601 12.6571 11.2384 12.687 10.8165C12.8062 10.7486 12.9254 10.6807 13.0446 10.6128C13.0979 10.5825 13.0979 10.5825 13.1522 10.5515C13.3403 10.4445 13.5284 10.3375 13.7167 10.2307C14.0835 10.022 14.4476 9.81063 14.8061 9.58793C14.8668 9.55059 14.9275 9.51324 14.99 9.47476C15.1036 9.40441 15.2166 9.33304 15.3289 9.26057C15.7019 9.0309 15.7019 9.0309 15.9467 9.06197Z" fill="#FDFDFD"/>
<path d="M73.1016 16.9968C73.1493 16.9955 73.197 16.9942 73.2461 16.9929C73.7253 16.9897 74.0774 17.1448 74.4588 17.4415C74.8646 17.9285 74.8882 18.418 74.8882 19.0364C73.5926 19.0364 72.2971 19.0364 70.9623 19.0364C71.056 18.2863 71.2617 17.8366 71.8211 17.3188C72.2192 17.0188 72.6219 16.9999 73.1016 16.9968Z" fill="#FDFDFD"/>
</svg>
